# xmcd
#
# Track frame offsets:
#	150
#	12677
#	26575
#	38153
#	49745
#	58949
#	70986
#	88309
#	100340
#	112778
#
# Disc length: 1790 seconds
#
# Revision: 0
# Processed by: cddbd v1.5.2PL0 Copyright (c) Steve Scherf et al.
# Submitted via: audiograbber 1.83.01
#
DISCID=8806fc0a
DTITLE=Emiliana Torrini - Croucie d'où là
DYEAR=1995
DGENRE=Blues
TTITLE0=I´m A Bad Luck Woman
TTITLE1=Crazy Love
TTITLE2=The Man With The Golden Gun
TTITLE3=Today I Sing The Blues
TTITLE4=I
TTITLE5=The Dirty Dozens
TTITLE6=Tomorrow
TTITLE7=Find It
TTITLE8=Miss Cele's Blues (Sister)
TTITLE9=Aaaa........
EXTD=
EXTT0=
EXTT1=
EXTT2=
EXTT3=
EXTT4=
EXTT5=
EXTT6=
EXTT7=
EXTT8=
EXTT9=
PLAYORDER=
